@startuml
Employee <|-- SalariedEmployee
Employee <|-- HourlyEmployee
Employee <|-- CommissionEmployee
Employee <|-- BaseEmployee

class Employee{
-firstName: String
-lastName: String
-socialSecurityNumber: String


+getFirstName(): String
+setFirstName(firstName: String): void
+getLastName(): String
+setLastName(lastName: String): void
+getSocialSecurityNumber(): String
+setSocialSecurityNumber(setSocialSecurityNumber: String): void
+toString(): String
}

class SalariedEmployee{
weeklySalary: int

+getWeeklySalary(): int
+setWeeklySalary(weeklySalary: int): void
+toString(): String
}

class HourlyEmployee{
wage: int
hoursWorked: int

+getWage(): int
+setWage(wage: int): void
+toString(): String
}

class CommissionEmployee{
commission: int
grossSales: int

+getCommissionRate(): int
+setCommissionRate(commissionRate: int): void
+getGrossSales(): int
+setGrossSales(grossSales): void
+toString(): String
}

class BaseEmployee{
baseSalary: int

+getBaseSalary(): int
+setBaseSalary(baseSalary: int): void
+toString(): String

}

@enduml