@startuml
Ship <|-- CargoShip
Ship <|-- CruiseShip

class Ship{
#shipName: String
#yearBuilt: String

+getShipName(): String
+setShipName(shipName: String): void
+getYearBuilt(): String
+setYearBuilt(yearBuilt: String): void
+toString(): String
+prinShip(): void
}

class CargoShip{
cargoCapacityInTonnage: int

+getCargoCapacityInTonnage(): int
+setCargoCapacityInTonnage(cargoCapacityInTonnage: int): void
+toString(): String
}

class CruiseShip{
maxNumberPassengers: int

+getMaxNumberPassengers(): int
+setMaxNumberpassengers(maxNumberPassengers: int): void
+toString(): String
}
@enduml